<?xml version="1.0" encoding="UTF-8"?><svg id="Layer_2" xmlns="http://www.w3.org/2000/svg" viewBox="0 0 760.45 623.9"><g id="Layer_1-2"><path d="M295.67,0l23.55,1.74-3.82,51.6,31.53,2.34-1.35,18.26-55.09-4.08L295.67,0Z" style="fill:#25bbea; stroke-width:0px;"/><path d="M408.54,49.11l-2.17,29.34-20.96-1.55.53-7.18c-3,5.29-8.39,7.6-16.08,7.04-13.38-.99-19.7-9.09-19-18.47.78-10.58,9.21-15.88,26.17-14.62l9.08.68c-.39-4.24-3.42-6.68-9.81-7.15-4.89-.37-10.49.82-14.29,3.25l-6.08-15.4c6.68-3.52,16.52-5,25.01-4.37,18.76,1.39,28.94,10.27,27.59,28.44ZM385.13,59.02l.28-3.79-5.59-.41c-4.79-.35-7,1.08-7.22,4.08-.18,2.49,1.67,4.54,5.07,4.79,3.1.23,6.01-1.15,7.46-4.66Z" style="fill:#25bbea; stroke-width:0px;"/><path d="M482.19,29.17l-3.24,43.72c-1.57,21.16-14.69,30.32-35.56,28.78-10.78-.79-20.39-3.82-26.84-8.81l8.72-14.81c4.04,3.61,11.18,6.25,17.07,6.68,9.29.69,13.27-3.13,13.81-10.42l.07-.99c-3.68,3.64-8.8,5.16-15.49,4.67-13.88-1.03-25.49-12.13-24.3-28.3,1.2-16.16,14.32-25.33,28.2-24.3,7.49.56,12.6,3.24,15.64,8.38l.46-6.18,21.46,1.59ZM457.95,52.77c.4-5.29-3.34-8.98-8.63-9.37-5.29-.4-9.64,2.69-10.04,7.99-.39,5.29,3.45,9.08,8.74,9.48,5.29.39,9.53-2.81,9.92-8.1Z" style="fill:#25bbea; stroke-width:0px;"/><path d="M492.17,29.92l22.56,1.67-4.04,54.6-22.56-1.67,4.04-54.6ZM491.05,13.88c.48-6.49,6.14-11.09,14.42-10.48,8.29.62,13.24,5.6,12.76,12.09-.51,6.89-6.17,11.49-14.46,10.87-8.28-.61-13.21-5.99-12.72-12.48Z" style="fill:#25bbea; stroke-width:0px;"/><path d="M561.03,88.01c-3.64,1.74-8.8,2.26-14.09,1.87-15.07-1.12-23.33-8.85-22.21-23.92l1.04-13.98-7.49-.55,1.22-16.47,7.49.55,1.13-15.27,22.55,1.67-1.13,15.27,11.19.83-1.22,16.47-11.19-.83-1.02,13.77c-.25,3.4,1.61,5.44,4.3,5.64,1.79.13,3.63-.23,5.2-1.12l4.23,16.07Z" style="fill:#25bbea; stroke-width:0px;"/><path d="M629.19,63.66l-2.31,31.14-22.56-1.68,2.01-27.25c.51-6.79-1.9-9.57-5.99-9.88-4.59-.34-8.69,2.27-9.3,10.35l-1.9,25.65-22.56-1.67,5.49-74.05,22.56,1.67-1.76,23.86c4.46-3.29,9.88-4.69,15.77-4.25,12.58.93,21.83,8.94,20.55,26.11Z" style="fill:#25bbea; stroke-width:0px;"/><path d="M692.83,70.17l-2.17,29.34-20.96-1.55.53-7.18c-3,5.29-8.39,7.61-16.08,7.04-13.38-.99-19.7-9.09-19-18.47.78-10.58,9.21-15.87,26.17-14.62l9.08.68c-.39-4.24-3.42-6.68-9.81-7.15-4.89-.36-10.49.82-14.29,3.26l-6.08-15.41c6.68-3.52,16.52-4.99,25.01-4.37,18.76,1.39,28.94,10.27,27.59,28.44ZM669.42,80.08l.28-3.79-5.59-.41c-4.79-.35-7,1.09-7.22,4.08-.18,2.49,1.67,4.54,5.07,4.79,3.1.24,6.01-1.15,7.46-4.66Z" style="fill:#25bbea; stroke-width:0px;"/><g id="Group_8067"><path id="Path_4367" d="M468.76,231.12c3.14,6.89,6.46,10.4,9.95,10.55,3.49.15,6-3.12,7.53-9.79,1.58-8.16,1.76-16.54.54-24.76-.81-8.43-2.98-16.67-6.43-24.41-3.23-6.74-6.77-10.15-10.25-10.32s-5.78,2.95-7.25,9.43c-1.55,7.96-1.75,16.12-.59,24.14.86,8.66,3.05,17.15,6.49,25.15" style="fill:#25bbea; stroke-width:0px;"/><path id="Path_4368" d="M499.23,232.44c3.09,6.86,6.38,10.37,9.87,10.51,3.49.15,6.02-3.11,7.61-9.75,1.64-8.13,1.86-16.48.64-24.68-.79-8.41-2.98-16.64-6.49-24.33-3.28-6.72-6.89-10.1-10.37-10.27s-5.73,2.91-7.14,9.43c-1.49,7.93-1.67,16.06-.52,24.05.86,8.62,3.02,17.07,6.4,25.05" style="fill:#25bbea; stroke-width:0px;"/><path id="Path_4369" d="M657.43,239.27c3.11,6.73,6.41,10.17,9.9,10.31,3.48.14,6-3.04,7.58-9.56,1.62-7.96,1.85-16.14.67-24.17-.73-8.25-2.86-16.31-6.3-23.85-3.25-6.6-6.97-9.88-10.45-10.02-3.48-.15-5.61,2.81-7.08,9.19-1.55,7.77-1.79,15.74-.71,23.58.81,8.47,2.96,16.76,6.36,24.57" style="fill:#25bbea; stroke-width:0px;"/><path id="Path_4370" d="M627.05,237.96c3.12,6.76,6.42,10.21,9.91,10.35,3.48.14,6.01-3.06,7.57-9.59,1.62-7.99,1.84-16.21.66-24.28-.74-8.28-2.88-16.38-6.33-23.95-3.25-6.62-6.93-9.92-10.42-10.09-3.48-.18-5.64,2.83-7.08,9.23-1.55,7.8-1.79,15.8-.69,23.67.82,8.5,2.98,16.83,6.39,24.66" style="fill:#25bbea; stroke-width:0px;"/><path id="Path_4371" d="M759.81,370.75l-.79-6.38c-.94-19.71-4.63-40.2-7.33-62.14-3.67-29.82-4.62-60.85-11.4-89.84l-1-8.07c-5.11-40.47-37.84-71.86-78.49-75.27l-398.93-32.91-16.24-83.13c-.75-3.79-4.07-6.53-7.93-6.53l-146.09-.44c-4.47,0-8.1,3.62-8.1,8.09,0,4.47,3.62,8.1,8.09,8.1h125.79l15.97,81.82c.05.51.14,1.01.29,1.5l7.66,39.13c14.74,81.4,23.12,174.28,49.47,253.45,1.71,8.54,4.71,16.78,8.91,24.41.81,2.04,1.63,4.08,2.48,6.1,6.21,11.48,15.44,21.04,26.7,27.65,2.79,1.88,5.72,3.56,8.76,5.01.81.44,1.72.7,2.64.75,3.54,2.09,12.27,5.71,31.78,6.9,2.47.89,5.08,1.35,7.71,1.36h46.26c.22,0,.42,0,.63-.03,60.34.94,174.43.34,194.27.22,26.7,1.27,53.46-.27,79.83-4.62-.15.21-.29.43-.44.64,13.72-3.49,26.1-10.94,35.62-21.42,4.43-5.78,8.31-11.97,11.6-18.47,10.34-16.68,14.68-36.4,12.29-55.88M377.34,333.94c1.65,5.01,3,10.12,4.04,15.29,1.37,6.42,2.99,16.86,4.68,31.17,1.3,11.03,1.8,16.54,2.52,27.52l-15.16-.31c-4.09-.08-7.85-4.46-11.57-13.27-4.16-10.42-6.87-21.36-8.05-32.52-1.66-10.54-1.58-21.28.24-31.79,1.77-8.09,5.12-12.08,10.02-11.93,2.83.26,5.42,1.7,7.13,3.96,2.76,3.54,4.85,7.57,6.14,11.87M373.15,260.54c1.42-.69,2.9-1.26,4.42-1.69,2.22-.59,4.53-.82,6.82-.66,4.61.31,8.99,2.12,12.48,5.14,4.81,4.2,8.71,9.32,11.49,15.07,4.13,8.25,7.36,16.92,9.61,25.87,3.19,12.35,5.49,24.91,6.89,37.59,1.26,10.44,1.89,15.66,3.15,26.1,1.65,10.2,1.87,20.58.65,30.84-1.26,6.6-4.26,9.84-8.77,9.75l-6.45-.13c-.77-14.25-1.6-21.42-3.34-35.8-2.52-23.74-7.29-47.18-14.23-70.02-4.11-15.63-11.9-30.05-22.71-42.06M652.01,339.06c2-8.36,5.17-12.47,9.52-12.33s8.5,4.47,12.47,13c4.34,9.93,7.07,20.49,8.1,31.28,1.74,10.21,1.12,20.69-1.8,30.62-2.95,8.1-7.08,12.03-11.38,11.94-4.31-.09-7.46-4.18-10.51-12.43-3.61-10-6.03-20.39-7.2-30.95-1.52-10.35-1.25-20.88.81-31.13M659.47,145.18c21.76,1.82,41.43,13.67,53.2,32.07,10.26,34.94,11.97,72.15,16.17,108.32,3.58,30.84,8.57,61.77,10.28,92.77-1.4,14.07-6.69,30.4-23.24,34.08-.45.1-.86.21-1.29.32-2.78.4-5.65.7-9.43.99,2.26-6.91,3.44-14.13,3.48-21.4.04-7.65-.44-15.29-1.43-22.88-1.5-13.42-4-26.71-7.48-39.76-2.96-11.34-6.99-22.37-12.05-32.94-3.91-8.45-9.16-16.22-15.55-22.99-4.56-5.21-10.97-8.44-17.86-9.03-6.26-.23-12.22,2.66-15.92,7.71-4.97,6.58-8.49,14.15-10.31,22.19-2.67,10.84-4.14,21.94-4.39,33.11-.43,13.48.18,26.97,1.81,40.36.36,3.03.88,6.52,1.56,10.47.68,3.95,1.49,7.95,2.18,12.01.7,4.06,1.3,8.05,1.8,11.93.51,3.89.89,7.32,1.26,10.28l-16.75-.34-10.99-.22c-2.41.03-4.69-1.09-6.12-3.03-1.75-2.6-2.95-5.53-3.54-8.61-.9-3.77-1.66-8.38-2.47-13.83-.81-5.44-1.77-11.7-2.59-18.7-3.71-31.52-7.43-63.03-11.15-94.53-1.6-1.6-3.3-3.11-5.08-4.52-2.34-2-5.28-3.15-8.35-3.28-4.14-.17-7.09,2.22-8.84,7.17-1.87,8.47-2.03,17.23-.44,25.75,2.72,22.91,5.43,45.81,8.14,68.72.84,7.03,1.5,13.3,1.77,18.75.3,4.61.07,9.25-.69,13.81-.42,3.08-1.61,6.01-3.45,8.51-1.51,1.89-3.84,2.93-6.25,2.8l-11.79-.24-6.93-.14c-2.44.02-4.74-1.12-6.21-3.07-1.84-2.62-3.13-5.58-3.79-8.71-.98-3.81-1.83-8.48-2.67-13.97s-1.77-11.79-2.63-18.87c-3.79-31.78-7.58-63.56-11.36-95.34-1.61-1.61-3.31-3.13-5.09-4.55-2.33-2.01-5.28-3.18-8.35-3.31-4.14-.16-7.07,2.26-8.8,7.24-1.86,8.54-1.99,17.38-.38,25.97,2.75,23.1,5.5,46.2,8.25,69.31.85,7.08,1.52,13.41,1.84,18.91.33,4.66.16,9.34-.5,13.96-.34,3.09-1.45,6.05-3.22,8.61-1.45,1.91-3.76,2.98-6.16,2.84l-6.82-.08h-.97l-3.86-.08-7.26-.15c-2.47,0-4.8-1.15-6.31-3.11-1.92-2.65-3.29-5.66-4.02-8.84-1.21-4.65-2.16-9.37-2.87-14.12-.88-5.55-1.82-11.92-2.68-19.04-1.18-10.02-1.81-15.05-3.02-25.08-2.38-22.2-6.57-44.16-12.52-65.67-4.17-15.44-10.09-30.35-17.62-44.45-5.06-9.82-12.08-18.49-20.64-25.48-6.09-4.98-13.53-8-21.37-8.66-2.9-.14-5.8.27-8.55,1.23-2.67.92-5.2,2.21-7.5,3.84-2.26,1.62-4.16,3.67-5.61,6.04-1.48,2.4-2.56,5.03-3.2,7.78-1.46,7.85-1.58,15.9-.35,23.8.34,2.82.71,5.4,1.1,7.75.4,2.36.91,4.79,1.54,7.3-5.64.23-10.91,2.9-14.43,7.31-4.84,5.98-8.26,13-9.98,20.5-2.66,10.54-4.08,21.35-4.23,32.22-.28,14.34.58,28.67,2.57,42.87.24,1.86.36,2.78.59,4.64.88,6.8,1.53,12.71,1.92,17.72.38,4.14.36,8.31-.04,12.45-.07,2.43-.9,4.77-2.36,6.71-.85.82-2.04,1.16-3.2.91-11-4.77-19.56-13.84-23.67-25.1l-4.49-23.18c-11.92-79.13-24.08-158.32-38.18-237.07l399.82,32.33Z" style="fill:#25bbea; stroke-width:0px;"/><path id="Path_4372" d="M655.65,493.12c-15.6,0-30.68,5.58-42.5,15.76l-13.05-8.57c-1.56-10.99-11.74-18.63-22.72-17.06-8.85,1.26-15.8,8.21-17.06,17.06l-13.05,8.57c-27.43-23.46-68.68-20.24-92.14,7.19-23.46,27.43-20.24,68.68,7.19,92.14,27.43,23.46,68.68,20.24,92.14-7.19,7.89-9.22,13.05-20.46,14.91-32.45h21.67c5.57,35.68,39.01,60.09,74.69,54.52,35.68-5.57,60.09-39.01,54.52-74.69-4.97-31.83-32.38-55.3-64.6-55.3M521.61,611.19c1.27-.41,2.52-.88,3.75-1.37l-2.56-7.08c-.3-.82-1.21-1.24-2.03-.94l-.8.29c-.82.3-1.24,1.21-.94,2.03l2.58,7.08c-4.86,1.54-9.91,2.4-15,2.56v-7.45c0-.87-.71-1.58-1.59-1.58h-.82c-.87,0-1.58.71-1.59,1.58v7.45c-5.09-.19-10.12-1.09-14.96-2.66l2.54-6.99c.29-.82-.13-1.72-.94-2.03l-.8-.29c-.82-.3-1.73.12-2.03.94,0,0,0,0,0,0l-2.54,6.98c-4.71-1.94-9.12-4.52-13.12-7.66l4.72-5.65c.56-.67.48-1.66-.19-2.23,0,0,0,0,0,0l-.65-.55c-.67-.56-1.67-.47-2.23.2l-4.75,5.65c-3.76-3.42-7.03-7.34-9.73-11.64l6.39-3.69c.76-.43,1.02-1.4.59-2.15,0,0,0,0,0,0l-.43-.74c-.43-.76-1.4-1.02-2.16-.59l-6.39,3.69c-2.39-4.49-4.14-9.29-5.21-14.27l7.3-1.29c.86-.16,1.43-.97,1.28-1.83l-.15-.84c-.15-.86-.97-1.43-1.83-1.28l-7.29,1.29c-.71-5.04-.71-10.15,0-15.19l7.31,1.29c.86.15,1.68-.42,1.83-1.28l.15-.84c.15-.86-.42-1.68-1.28-1.83,0,0,0,0,0,0l-7.33-1.29c1.06-4.98,2.81-9.79,5.2-14.29l6.49,3.72c.76.43,1.72.17,2.16-.59,0,0,0,0,0,0l.42-.74c.43-.75.18-1.72-.58-2.15,0,0,0,0-.01,0l-6.49-3.73c2.71-4.29,5.99-8.19,9.76-11.6l4.79,5.7c.56.67,1.56.76,2.23.2l.65-.55c.67-.56.75-1.56.19-2.23l-4.81-5.74c4.02-3.14,8.46-5.7,13.18-7.63l2.58,7.08c.3.82,1.2,1.25,2.02.95l.8-.29c.82-.3,1.24-1.2.95-2.02,0,0,0,0,0,0l-2.58-7.08c28.98-9.65,60.29,6.02,69.94,35,9.65,28.98-6.02,60.29-35,69.94-.33.11-.65.21-.98.32M575.15,558.54h-5.03c0-15.53-5.53-30.55-15.62-42.35l7.32-4.81c2.5,5.59,7.41,9.74,13.34,11.28v35.87ZM570.13,503.21c0-5.56,4.5-10.06,10.06-10.06s10.06,4.5,10.06,10.06-4.5,10.06-10.06,10.06c-5.55,0-10.05-4.51-10.06-10.06M590.24,558.54h-5.02v-35.9c5.92-1.55,10.83-5.7,13.33-11.28l7.32,4.81c-10.09,11.8-15.63,26.82-15.62,42.35M658.32,613.76c-1.04.06-2.08.09-3.13.09h.59c.45,0,.9-.05,1.34-.06v-7.46c0-.87-.71-1.58-1.59-1.58h-.85c-.87,0-1.58.71-1.59,1.58v7.45h.45c.55.04,1.09.08,1.65.08-30.55-.01-55.3-24.79-55.29-55.34.01-28.4,21.53-52.18,49.79-55.01,1.98-.21,3.96-.32,5.95-.32,30.56.06,55.28,24.88,55.22,55.43-.06,29.43-23.14,53.66-52.53,55.15" style="fill:#25bbea; stroke-width:0px;"/><path id="Path_4373" d="M504.77,513.24c-25,0-45.27,20.27-45.27,45.27s20.27,45.27,45.27,45.27,45.27-20.27,45.27-45.27c-.03-24.99-20.28-45.24-45.27-45.27M498.54,575.62c-4.42,4.78-10.75,7.31-17.25,6.89-.81,0-1.54-.05-2.29-.08-1.2-.05-2.4-.17-3.58-.37v-7.56c2.13.58,4.33.86,6.54.83,5.85.48,11.11-3.57,12.15-9.34l.83-3.12-.06-.06c-2.27,2.58-5.62,3.94-9.05,3.67-3.61.19-7.13-1.16-9.69-3.7-2.47-2.65-3.76-6.2-3.57-9.82-.13-4.25,1.51-8.36,4.53-11.35,3.08-3.04,7.28-4.68,11.6-4.53,4.77-.28,9.36,1.89,12.15,5.77,2.55,3.97,3.8,8.64,3.57,13.36.45,6.97-1.65,13.87-5.9,19.42M535.95,576.77c-.92,1.1-1.97,2.07-3.14,2.9-2.65,1.87-5.83,2.84-9.07,2.78-10.88,0-16.33-7.38-16.33-22.13-.38-6.24,1.48-12.41,5.23-17.41,5.62-6.48,15.25-7.59,22.2-2.56,4.83,5.07,7.15,12.03,6.34,18.98.38,6.25-1.47,12.43-5.23,17.44" style="fill:#25bbea; stroke-width:0px;"/><path id="Path_4374" d="M524.4,544.18c-5.38,0-8.07,5.21-8.07,15.62,0,10.42,2.63,15.64,7.89,15.67,5.4,0,8.1-5.18,8.1-15.53s-2.64-15.75-7.91-15.75" style="fill:#25bbea; stroke-width:0px;"/><path id="Path_4375" d="M488.26,544.23c-1.9-.08-3.74.68-5.04,2.08-1.36,1.51-2.07,3.49-1.98,5.51-.11,1.93.53,3.83,1.77,5.31,1.3,1.38,3.15,2.12,5.04,2,1.94.05,3.81-.74,5.13-2.16,1.21-1.21,1.89-2.85,1.88-4.56.13-2.17-.52-4.3-1.85-6.03-1.23-1.45-3.07-2.24-4.96-2.15" style="fill:#25bbea; stroke-width:0px;"/><path id="Path_4376" d="M504.24,512.44h.85c.87,0,1.58-.71,1.58-1.59v-7.52c-.67,0-1.33-.11-2.01-.11s-1.33.08-2.01.11v7.52c0,.87.71,1.58,1.59,1.59" style="fill:#25bbea; stroke-width:0px;"/><path id="Path_4377" d="M534.58,593.68l-.65.55c-.67.56-.77,1.55-.21,2.22h0s4.82,5.75,4.82,5.75c1.06-.83,2.08-1.69,3.07-2.59l-4.81-5.74c-.56-.67-1.56-.75-2.23-.19" style="fill:#25bbea; stroke-width:0px;"/><path id="Path_4378" d="M544.77,581.33l-.42.74c-.43.76-.17,1.73.59,2.16l6.49,3.76c.71-1.13,1.42-2.27,2.05-3.45l-6.56-3.79c-.76-.43-1.72-.17-2.16.59" style="fill:#25bbea; stroke-width:0px;"/><path id="Path_4379" d="M550.13,566.22l-.14.84c-.15.86.42,1.67,1.27,1.83,0,0,0,0,0,0l7.46,1.31c.28-1.3.47-2.63.65-3.96l-7.41-1.31c-.86-.15-1.68.42-1.84,1.29" style="fill:#25bbea; stroke-width:0px;"/><path id="Path_4380" d="M550,550.19l.15.84c.16.86.97,1.43,1.83,1.28l7.43-1.31c-.18-1.33-.37-2.66-.64-3.97l-7.48,1.32c-.86.15-1.44.97-1.29,1.83" style="fill:#25bbea; stroke-width:0px;"/><path id="Path_4381" d="M544.61,535.3c.44.75,1.4,1.02,2.16.59l6.49-3.76c-.65-1.18-1.37-2.31-2.09-3.44l-6.42,3.71c-.76.44-1.02,1.4-.59,2.16l.46.73Z" style="fill:#25bbea; stroke-width:0px;"/><path id="Path_4382" d="M534.64,523.53c.67.56,1.67.47,2.23-.19l4.85-5.78c-1-.9-2.01-1.77-3.07-2.59l-4.86,5.79c-.56.67-.47,1.67.2,2.23l.65.55Z" style="fill:#25bbea; stroke-width:0px;"/><path id="Path_4383" d="M520.05,515.09l.8.29c.82.3,1.73-.13,2.02-.95l2.6-7.12c-1.24-.5-2.49-.97-3.77-1.38l-2.59,7.13c-.3.82.12,1.73.94,2.03,0,0,0,0,0,0" style="fill:#25bbea; stroke-width:0px;"/><path id="Path_4384" d="M643.99,546.49c0-2.54-.72-3.8-2.15-3.8-1.6,0-2.39,1.29-2.39,3.86s.75,3.83,2.25,3.83,2.29-1.3,2.29-3.9" style="fill:#25bbea; stroke-width:0px;"/><path id="Path_4385" d="M669.09,568.99c-1.6,0-2.4,1.29-2.39,3.86s.74,3.85,2.22,3.83c1.54,0,2.32-1.3,2.32-3.9s-.72-3.8-2.15-3.8" style="fill:#25bbea; stroke-width:0px;"/><path id="Path_4386" d="M698.64,558.68c0-13.38-6.15-26.01-16.67-34.27l-.59-.45c-.49-.37-.99-.74-1.5-1.09-.32-.23-.66-.45-1-.67-.5-.33-1-.66-1.51-.96-.7-.43-1.42-.83-2.15-1.21-.35-.19-.71-.36-1.07-.54-.59-.28-1.18-.59-1.77-.82l-.99-.42c-.92-.38-1.86-.74-2.81-1.05l-.22-.07c-.98-.32-1.98-.59-2.98-.84l-.47-.11c-.93-.22-1.86-.41-2.81-.59-.11,0-.21-.04-.31-.05-1-.16-2-.27-3.02-.36l-.69-.05c-1.03-.08-2.07-.12-3.11-.12h0c-9.41-.02-18.56,3.02-26.1,8.66-1.05.79-2.05,1.61-3.01,2.46-.59.54-1.18,1.08-1.77,1.66-1.04,1.04-2.02,2.14-2.95,3.28-.87,1.06-1.7,2.16-2.47,3.3-.53.79-1.03,1.59-1.51,2.42-.39.66-.76,1.33-1.1,2.02-.96,1.88-1.79,3.83-2.46,5.84-1.14,3.35-1.87,6.83-2.16,10.36-.1,1.18-.15,2.41-.15,3.64,0,1.06.05,2.09.12,3.12l.05.68c.09,1.01.2,2.03.36,3.02,0,.09.04.19.05.29.15.96.35,1.9.59,2.83,0,.15.06.31.1.45.25,1.01.53,2,.85,2.99l.06.21c.32.96.68,1.89,1.05,2.82l.42.98c.27.59.54,1.18.83,1.77.18.36.35.72.54,1.07.38.73.78,1.44,1.18,2.15.31.51.64,1.01.97,1.52.22.34.44.67.67,1,.35.51.71,1.01,1.1,1.5.14.19.29.38.44.59,14.89,18.94,42.32,22.22,61.26,7.33,10.52-8.27,16.66-20.92,16.66-34.31M630.25,546.75c-.1-3.21,1.19-6.32,3.54-8.51,2.17-2.1,5.09-3.24,8.11-3.18,2.87-.14,5.69.8,7.9,2.64,2.3,2.14,3.51,5.21,3.31,8.34.11,3.3-1.2,6.48-3.59,8.76-2.16,2.12-5.08,3.29-8.1,3.24-3.02.15-5.98-.96-8.14-3.08-2.07-2.21-3.16-5.17-3.01-8.2M641.34,585.11l-7.87-5.75,34.37-43.49,1.18-1.47,7.84,5.74-1.44,1.82-34.08,43.15ZM676.72,581.11c-2.15,2.13-5.07,3.31-8.1,3.25-3.02.15-5.97-.96-8.14-3.08-4.48-4.73-4.28-12.19.44-16.67,2.22-2.1,5.16-3.26,8.21-3.23,2.87-.14,5.69.8,7.9,2.64.75.68,1.37,1.49,1.85,2.39.39.7.7,1.45.91,2.23.34,1.21.51,2.46.52,3.72.11,3.3-1.2,6.48-3.59,8.76" style="fill:#25bbea; stroke-width:0px;"/><path id="Path_4387" d="M654.78,512.44h.85c.87,0,1.58-.71,1.58-1.59v-7.52c-.67,0-1.33-.11-2.01-.11s-1.33.08-2.01.11v7.52c0,.87.71,1.58,1.59,1.59" style="fill:#25bbea; stroke-width:0px;"/><path id="Path_4388" d="M636.99,514.4c.3.82,1.21,1.24,2.03.95l.8-.29c.82-.3,1.25-1.21.95-2.03l-2.55-7.02-.04-.08c-1.28.39-2.53.85-3.77,1.38l.03.1,2.55,6.99Z" style="fill:#25bbea; stroke-width:0px;"/><path id="Path_4389" d="M622.98,523.28c.56.67,1.56.75,2.23.19l.65-.55c.67-.56.76-1.56.2-2.23,0,0,0,0,0,0l-4.68-5.57-.14-.17c-1.06.83-2.08,1.69-3.07,2.59l.14.18,4.66,5.56Z" style="fill:#25bbea; stroke-width:0px;"/><path id="Path_4390" d="M612.85,536.42c.76.43,1.72.17,2.16-.59,0,0,0,0,0,0l.42-.74c.43-.76.17-1.72-.59-2.16,0,0,0,0,0,0l-6.2-3.58-.28-.16c-.71,1.13-1.41,2.27-2.04,3.46l.32.19,6.21,3.58Z" style="fill:#25bbea; stroke-width:0px;"/><path id="Path_4391" d="M607.81,552.22c.86.15,1.68-.42,1.84-1.28l.14-.84c.15-.86-.43-1.68-1.29-1.83l-6.98-1.23-.41-.07c-.28,1.3-.47,2.64-.65,3.97l.37.06,6.97,1.23Z" style="fill:#25bbea; stroke-width:0px;"/><path id="Path_4392" d="M609.78,566.97l-.15-.84c-.16-.86-.97-1.43-1.83-1.28l-6.93,1.2-.38.07c.18,1.33.37,2.66.65,3.96l.42-.07,6.96-1.23c.86-.16,1.43-.97,1.29-1.83" style="fill:#25bbea; stroke-width:0px;"/><path id="Path_4393" d="M614.96,581.24c-.43-.76-1.4-1.02-2.15-.59,0,0,0,0,0,0l-6.13,3.54-.35.21c.63,1.18,1.33,2.36,2.04,3.46l.32-.18,6.13-3.54c.76-.43,1.02-1.4.59-2.16l-.44-.73Z" style="fill:#25bbea; stroke-width:0px;"/><path id="Path_4394" d="M625.13,593.62c-.67-.56-1.67-.47-2.23.19l-4.59,5.47-.18.22c.99.9,2,1.77,3.06,2.59l.18-.21,4.61-5.49c.56-.67.47-1.67-.2-2.23l-.65-.55Z" style="fill:#25bbea; stroke-width:0px;"/><path id="Path_4395" d="M639.73,602.07l-.8-.29c-.82-.3-1.73.12-2.03.94,0,0,0,0,0,0l-2.49,6.86-.06.17c1.24.51,2.5.97,3.77,1.39l.05-.15,2.51-6.89c.3-.82-.12-1.73-.94-2.03" style="fill:#25bbea; stroke-width:0px;"/><path id="Path_4396" d="M671.3,601.81l-.8.29c-.82.3-1.24,1.21-.94,2.03l2.57,7.08c1.28-.41,2.54-.88,3.77-1.39l-2.57-7.08c-.3-.82-1.21-1.24-2.03-.94,0,0,0,0,0,0" style="fill:#25bbea; stroke-width:0px;"/><path id="Path_4397" d="M685.11,593.68l-.65.55c-.67.56-.76,1.56-.2,2.23l4.82,5.74c1.07-.83,2.08-1.69,3.08-2.59l-4.82-5.74c-.56-.67-1.56-.75-2.23-.19" style="fill:#25bbea; stroke-width:0px;"/><path id="Path_4398" d="M695.31,581.33l-.43.74c-.43.76-.17,1.73.59,2.16l6.49,3.76c.71-1.13,1.41-2.27,2.05-3.45l-6.56-3.79c-.76-.43-1.72-.17-2.16.59" style="fill:#25bbea; stroke-width:0px;"/><path id="Path_4399" d="M700.67,566.22l-.15.84c-.15.86.42,1.68,1.28,1.83l7.46,1.31c.28-1.3.48-2.63.66-3.96l-7.42-1.31c-.86-.15-1.68.42-1.83,1.29" style="fill:#25bbea; stroke-width:0px;"/><path id="Path_4400" d="M700.51,550.19l.15.84c.16.86.97,1.43,1.83,1.28l7.43-1.31c-.19-1.33-.37-2.66-.65-3.97l-7.45,1.32c-.86.15-1.44.97-1.29,1.83" style="fill:#25bbea; stroke-width:0px;"/><path id="Path_4401" d="M694.73,534.56l.42.74c.44.75,1.4,1.02,2.16.59l6.49-3.76c-.64-1.18-1.36-2.31-2.09-3.44l-6.42,3.71c-.76.43-1.02,1.4-.59,2.16" style="fill:#25bbea; stroke-width:0px;"/><path id="Path_4402" d="M685.18,523.53c.67.56,1.67.47,2.23-.19l4.85-5.78c-.99-.9-2.01-1.76-3.06-2.59l-4.86,5.79c-.56.67-.47,1.67.2,2.23l.65.55Z" style="fill:#25bbea; stroke-width:0px;"/><path id="Path_4403" d="M670.59,515.09l.8.29c.82.29,1.72-.13,2.02-.95l2.6-7.12c-1.24-.5-2.49-.97-3.78-1.38l-2.59,7.13c-.3.82.12,1.73.94,2.03,0,0,0,0,0,0" style="fill:#25bbea; stroke-width:0px;"/><path id="Path_4408" d="M102.14,139.92h103.71c3.84.17,7.09-2.8,7.26-6.64.04-.83-.07-1.66-.33-2.45-1.37-5.16-5.92-8.83-11.25-9.09h-103.7c-3.83-.19-7.1,2.76-7.29,6.6-.04.84.07,1.69.33,2.49,1.36,5.16,5.91,8.83,11.24,9.09" style="fill:#25bbea; stroke-width:0px;"/><path id="Path_4409" d="M224.37,179.64c-1.36-5.16-5.91-8.83-11.24-9.09H7.27c-3.84-.17-7.08,2.79-7.26,6.63-.04.83.07,1.66.33,2.46,1.37,5.15,5.91,8.82,11.24,9.07h205.87c3.83.18,7.09-2.79,7.26-6.62.04-.83-.07-1.67-.33-2.46" style="fill:#25bbea; stroke-width:0px;"/><path id="Path_4410" d="M115.73,235.53c1.36,5.16,5.91,8.83,11.23,9.09h103.73c3.84.18,7.09-2.79,7.27-6.63.04-.83-.07-1.66-.33-2.45-1.36-5.16-5.91-8.84-11.24-9.09h-103.73c-3.84-.17-7.08,2.79-7.26,6.63-.04.83.07,1.66.33,2.46" style="fill:#25bbea; stroke-width:0px;"/><path id="Path_4411" d="M237.96,275.26H32.09c-3.84-.17-7.08,2.79-7.26,6.63-.04.83.07,1.66.33,2.46,1.36,5.16,5.91,8.84,11.24,9.09h205.87c3.83.18,7.09-2.79,7.26-6.62.04-.83-.07-1.67-.33-2.46-1.36-5.16-5.91-8.83-11.24-9.09" style="fill:#25bbea; stroke-width:0px;"/></g></g></svg>